STARTFONT 2.1
COMMENT +
COMMENT  Copyright 1986, 1985 Bigelow & Holmes. 
COMMENT  Copyright 1996 BIZNET Poland, Inc.
COMMENT -
FONT -BIZNET-Fotinos-Medium-I-Normal-Sans-24-240-75-75-P-136-ISO8859-2
SIZE 24 72 72
FONTBOUNDINGBOX 20 24 -2 -5
STARTPROPERTIES 21
FOUNDRY "BIZNET"
FAMILY_NAME "BIZNET Fotinos"
WEIGHT_NAME "Medium"
SLANT "I"
SETWIDTH_NAME "Normal"
ADD_STYLE_NAME "Sans"
PIXEL_SIZE 24
POINT_SIZE 240
RESOLUTION_X 75
RESOLUTION_Y 75
SPACING "P"
AVERAGE_WIDTH 136
CHARSET_REGISTRY "ISO8859"
CHARSET_ENCODING "2"
FONT_ASCENT 22
FONT_DESCENT 5
FACE_NAME "BIZNET Fotinos Sans Italic"
DEFAULT_CHAR 0
CHARSET_COLLECTIONS "ASCII ISO8859-2"
COPYRIGHT "Copyright Bigelow & Holmes 1986, 1985. Copyright (c) 1996 BIZNET Poland, Inc. All Rights Reserved."
NOTICE "The name "BIZNET" is a registered trademark of BIZNET Poland, Inc."
ENDPROPERTIES
CHARS 190
STARTCHAR space
ENCODING 32
SWIDTH 316 0
DWIDTH 8 0
BBX 1 1 0 0
BITMAP
00
ENDCHAR
STARTCHAR exclam
ENCODING 33
SWIDTH 193 0
DWIDTH 8 0
BBX 6 17 3 0
BITMAP
0C
1C
18
18
18
18
38
30
30
30
30
60
00
00
00
E0
C0
ENDCHAR
STARTCHAR quotedbl
ENCODING 34
SWIDTH 361 0
DWIDTH 9 0
BBX 6 6 4 11
BITMAP
CC
CC
CC
CC
CC
CC
ENDCHAR
STARTCHAR numbersign
ENCODING 35
SWIDTH 633 0
DWIDTH 15 0
BBX 15 17 2 0
BITMAP
00C6
008C
018C
0118
0318
7FFE
7FFE
0620
0460
0C40
08C0
FFFC
FFFC
3180
2300
6700
C600
ENDCHAR
STARTCHAR dollar
ENCODING 36
SWIDTH 633 0
DWIDTH 15 0
BBX 12 21 3 -2
BITMAP
0100
0100
03F0
0FF0
1F80
3900
3300
3200
1A00
1E00
0600
0700
0580
04C0
0CC0
08C0
0980
FF80
FE00
1800
1800
ENDCHAR
STARTCHAR percent
ENCODING 37
SWIDTH 741 0
DWIDTH 18 0
BBX 17 17 2 0
BITMAP
0F0180
1F8300
398600
318C00
219800
333000
3F6000
1E4000
00DC00
01BE00
036300
066300
0CC300
18C600
30E600
607C00
C03800
ENDCHAR
STARTCHAR ampersand
ENCODING 38
SWIDTH 701 0
DWIDTH 17 0
BBX 15 17 2 0
BITMAP
01E0
03F0
0738
0618
0E30
0670
07E0
1F80
3B0E
738E
E18C
C1DC
C0D8
E0F0
F0F0
7FB0
1F38
ENDCHAR
STARTCHAR quoteright
ENCODING 39
SWIDTH 217 0
DWIDTH 5 0
BBX 4 6 4 11
BITMAP
70
70
30
60
E0
80
ENDCHAR
STARTCHAR parenleft
ENCODING 40
SWIDTH 325 0
DWIDTH 8 0
BBX 8 21 2 -4
BITMAP
01
03
06
0C
18
30
30
70
60
60
E0
C0
C0
C0
C0
C0
C0
60
60
30
10
ENDCHAR
STARTCHAR parenright
ENCODING 41
SWIDTH 325 0
DWIDTH 8 0
BBX 8 21 1 -4
BITMAP
08
0C
06
06
03
03
03
03
03
03
07
06
06
0E
0C
1C
18
30
60
C0
80
ENDCHAR
STARTCHAR asterisk
ENCODING 42
SWIDTH 470 0
DWIDTH 11 0
BBX 9 9 4 8
BITMAP
0C00
0C00
4800
EB80
3700
1800
2400
E600
4400
ENDCHAR
STARTCHAR plus
ENCODING 43
SWIDTH 633 0
DWIDTH 15 0
BBX 14 14 2 0
BITMAP
0180
0180
0180
0180
0300
0300
FFFC
FFFC
0300
0300
0600
0600
0600
0600
ENDCHAR
STARTCHAR comma
ENCODING 44
SWIDTH 316 0
DWIDTH 8 0
BBX 4 9 2 -5
BITMAP
70
70
70
70
20
20
60
40
C0
ENDCHAR
STARTCHAR minus
ENCODING 45
SWIDTH 633 0
DWIDTH 15 0
BBX 14 2 2 7
BITMAP
FFFC
FFFC
ENDCHAR
STARTCHAR period
ENCODING 46
SWIDTH 316 0
DWIDTH 8 0
BBX 3 2 3 0
BITMAP
E0
E0
ENDCHAR
STARTCHAR slash
ENCODING 47
SWIDTH 482 0
DWIDTH 12 0
BBX 16 21 0 -4
BITMAP
0003
0006
000C
000C
0018
0030
0030
0060
00C0
00C0
0180
0300
0300
0600
0C00
0C00
1800
3000
3000
6000
C000
ENDCHAR
STARTCHAR zero
ENCODING 48
SWIDTH 633 0
DWIDTH 15 0
BBX 13 17 3 0
BITMAP
03C0
0FF0
1C70
3838
3018
7038
6038
6038
E038
C030
C030
C070
C060
E0C0
61C0
7F80
1E00
ENDCHAR
STARTCHAR one
ENCODING 49
SWIDTH 633 0
DWIDTH 15 0
BBX 6 17 6 0
BITMAP
7C
FC
18
18
18
38
38
30
30
30
70
70
60
60
60
E0
C0
ENDCHAR
STARTCHAR two
ENCODING 50
SWIDTH 633 0
DWIDTH 15 0
BBX 13 17 2 0
BITMAP
07E0
1FF0
1038
0038
0018
0038
0030
0060
00C0
0380
0700
0C00
3800
3000
6000
FFE0
FFC0
ENDCHAR
STARTCHAR three
ENCODING 51
SWIDTH 633 0
DWIDTH 15 0
BBX 12 17 3 0
BITMAP
0FC0
1FE0
1070
0030
0030
0060
01C0
1F80
1FC0
01E0
00E0
0060
00E0
00C0
C1C0
FF80
7E00
ENDCHAR
STARTCHAR four
ENCODING 52
SWIDTH 633 0
DWIDTH 15 0
BBX 13 17 2 0
BITMAP
0038
0078
00F0
01B0
03B0
0730
0E70
1C60
1860
3060
6060
FFF8
FFF8
00C0
00C0
01C0
0180
ENDCHAR
STARTCHAR five
ENCODING 53
SWIDTH 633 0
DWIDTH 15 0
BBX 13 17 3 0
BITMAP
0FF8
1FF8
1800
1800
1800
1000
3F00
3FC0
01C0
00E0
00E0
00E0
00E0
00C0
C380
FF00
FE00
ENDCHAR
STARTCHAR six
ENCODING 54
SWIDTH 633 0
DWIDTH 15 0
BBX 13 17 3 0
BITMAP
03F0
07F8
0E18
1800
3000
7000
6FC0
7FE0
F0F0
E070
E070
C070
C060
E0E0
71C0
7F80
1E00
ENDCHAR
STARTCHAR seven
ENCODING 55
SWIDTH 633 0
DWIDTH 15 0
BBX 13 17 4 0
BITMAP
3FF8
3FF8
0078
0070
00E0
01C0
0380
0700
0E00
1C00
1C00
3800
3000
7000
6000
E000
E000
ENDCHAR
STARTCHAR eight
ENCODING 56
SWIDTH 633 0
DWIDTH 15 0
BBX 12 17 3 0
BITMAP
03C0
0FF0
1C30
1830
3830
3870
1DE0
0F80
1F80
39C0
60E0
E060
C060
C0E0
E1C0
7F80
3F00
ENDCHAR
STARTCHAR nine
ENCODING 57
SWIDTH 633 0
DWIDTH 15 0
BBX 13 17 2 0
BITMAP
03C0
0FF0
1C70
3838
3018
7018
7038
7038
7878
3FF0
1FB0
0070
0060
00C0
C380
FF00
7C00
ENDCHAR
STARTCHAR colon
ENCODING 58
SWIDTH 316 0
DWIDTH 8 0
BBX 5 13 3 0
BITMAP
38
38
00
00
00
00
00
00
00
00
00
E0
C0
ENDCHAR
STARTCHAR semicolon
ENCODING 59
SWIDTH 316 0
DWIDTH 8 0
BBX 6 18 2 -5
BITMAP
0C
1C
00
00
00
00
00
00
00
00
00
70
60
20
60
60
C0
80
ENDCHAR
STARTCHAR less
ENCODING 60
SWIDTH 633 0
DWIDTH 15 0
BBX 15 14 2 0
BITMAP
0002
000E
003C
01F0
0780
1E00
F800
7800
3C00
0F00
03C0
00F0
0078
0010
ENDCHAR
STARTCHAR equal
ENCODING 61
SWIDTH 633 0
DWIDTH 15 0
BBX 15 7 1 3
BITMAP
7FFE
7FFE
0000
0000
0000
FFFC
FFFC
ENDCHAR
STARTCHAR greater
ENCODING 62
SWIDTH 633 0
DWIDTH 15 0
BBX 15 14 1 0
BITMAP
1000
3C00
1E00
0780
01E0
0078
003C
003E
00F0
03C0
1F00
7800
E000
8000
ENDCHAR
STARTCHAR question
ENCODING 63
SWIDTH 464 0
DWIDTH 11 0
BBX 10 17 3 0
BITMAP
3F00
7F80
C380
01C0
0180
0380
0700
0E00
1C00
3800
3000
7000
6000
0000
0000
E000
C000
ENDCHAR
STARTCHAR at
ENCODING 64
SWIDTH 858 0
DWIDTH 21 0
BBX 18 17 3 0
BITMAP
00FC00
07FF00
0F0380
1801C0
30FCC0
61F840
430840
C61840
841840
8C30C0
8CD180
CFBF00
C71E00
600000
382000
1FF000
07C000
ENDCHAR
STARTCHAR A
ENCODING 65
SWIDTH 687 0
DWIDTH 16 0
BBX 16 17 0 0
BITMAP
0038
0078
0078
00D8
01DC
019C
039C
030C
060C
060E
0C0E
1FFE
1FFE
3006
3007
6007
E007
ENDCHAR
STARTCHAR B
ENCODING 66
SWIDTH 593 0
DWIDTH 14 0
BBX 13 17 2 0
BITMAP
1FE0
1FF0
1838
1838
3830
3870
30E0
3FC0
3F80
71E0
7060
7070
6070
6070
E1E0
FFC0
FF80
ENDCHAR
STARTCHAR C
ENCODING 67
SWIDTH 679 0
DWIDTH 16 0
BBX 16 17 3 0
BITMAP
01FE
07FF
0F03
1C00
3800
7000
7000
6000
E000
E000
E000
E000
E000
E000
7818
3FF8
0FE0
ENDCHAR
STARTCHAR D
ENCODING 68
SWIDTH 743 0
DWIDTH 18 0
BBX 17 17 2 0
BITMAP
1FFC00
1FFE00
1C0F00
180780
180380
380380
380380
300380
300380
300300
700700
700600
600E00
601C00
607800
FFF000
FFC000
ENDCHAR
STARTCHAR E
ENCODING 69
SWIDTH 547 0
DWIDTH 13 0
BBX 13 17 2 0
BITMAP
1FF8
1FF8
1800
1800
3800
3800
3000
3FC0
3FC0
7000
7000
7000
6000
6000
E000
FFC0
FFC0
ENDCHAR
STARTCHAR F
ENCODING 70
SWIDTH 536 0
DWIDTH 13 0
BBX 13 17 2 0
BITMAP
1FF8
1FF8
1800
1800
3800
3800
3800
3000
3FC0
7FC0
7000
7000
6000
6000
E000
E000
E000
ENDCHAR
STARTCHAR G
ENCODING 71
SWIDTH 702 0
DWIDTH 17 0
BBX 16 17 3 0
BITMAP
01FE
07FF
0F03
1C00
3800
7000
7000
6000
E000
E00C
E00C
E01C
E01C
F01C
7838
3FF8
0FC0
ENDCHAR
STARTCHAR H
ENCODING 72
SWIDTH 735 0
DWIDTH 18 0
BBX 17 17 2 0
BITMAP
1C0380
1C0380
180300
180300
180300
380700
380700
3FFE00
3FFE00
300600
700E00
700E00
600C00
600C00
600C00
E01C00
E01C00
ENDCHAR
STARTCHAR I
ENCODING 73
SWIDTH 289 0
DWIDTH 7 0
BBX 6 17 2 0
BITMAP
1C
1C
18
18
18
38
38
30
30
30
70
70
60
60
60
E0
E0
ENDCHAR
STARTCHAR J
ENCODING 74
SWIDTH 408 0
DWIDTH 10 0
BBX 12 21 0 -4
BITMAP
0070
0070
0060
0060
0060
00E0
00E0
00C0
00C0
00C0
01C0
01C0
0180
0180
0180
0380
0300
0300
8700
FE00
F800
ENDCHAR
STARTCHAR K
ENCODING 75
SWIDTH 635 0
DWIDTH 15 0
BBX 15 17 2 0
BITMAP
1C0E
1C1C
1838
1870
18E0
39C0
3B80
3700
3E00
3700
7300
7180
61C0
60C0
6060
E070
E038
ENDCHAR
STARTCHAR L
ENCODING 76
SWIDTH 545 0
DWIDTH 13 0
BBX 11 17 2 0
BITMAP
1C00
1C00
1800
1800
1800
3800
3800
3000
3000
3000
7000
7000
6000
6000
6000
FFE0
FFE0
ENDCHAR
STARTCHAR M
ENCODING 77
SWIDTH 828 0
DWIDTH 20 0
BBX 19 17 2 0
BITMAP
1E01E0
1E01E0
1E03C0
1E03C0
1F06C0
3706C0
330DC0
331D80
331980
333180
633180
63E380
63E300
61C300
61C300
C00300
C00700
ENDCHAR
STARTCHAR N
ENCODING 78
SWIDTH 741 0
DWIDTH 18 0
BBX 17 17 2 0
BITMAP
1C0180
1E0180
1E0300
1F0300
1F0300
3B0300
338300
318600
31C600
30C600
60E600
606E00
607C00
607C00
603C00
C03C00
C01C00
ENDCHAR
STARTCHAR O
ENCODING 79
SWIDTH 777 0
DWIDTH 19 0
BBX 17 17 3 0
BITMAP
01F800
07FE00
0F0F00
1C0700
380380
700380
700380
600380
E00380
E00300
E00700
E00600
E00E00
F01C00
787800
3FF000
0F8000
ENDCHAR
STARTCHAR P
ENCODING 80
SWIDTH 575 0
DWIDTH 14 0
BBX 13 17 2 0
BITMAP
1FE0
1FF8
1838
1838
3838
3838
3070
30E0
3FC0
7F00
7000
6000
6000
6000
E000
E000
E000
ENDCHAR
STARTCHAR Q
ENCODING 81
SWIDTH 777 0
DWIDTH 19 0
BBX 17 22 3 -5
BITMAP
01F800
07FE00
0F0F00
1C0700
380380
700380
700380
600380
E00380
E00300
E00700
E00700
E00E00
F01C00
787800
3FF000
0FC000
007000
003C00
001F80
000F00
000600
ENDCHAR
STARTCHAR R
ENCODING 82
SWIDTH 632 0
DWIDTH 15 0
BBX 13 17 2 0
BITMAP
1FF0
1FF8
1838
1838
3838
3830
3870
30E0
3F80
7F80
7180
71C0
60C0
60E0
E060
E070
E030
ENDCHAR
STARTCHAR S
ENCODING 83
SWIDTH 553 0
DWIDTH 13 0
BBX 13 17 2 0
BITMAP
03F0
0FF8
1E08
1C00
1800
1C00
1E00
0F00
0780
01C0
00E0
0060
0060
00E0
C1E0
FFC0
7F00
ENDCHAR
STARTCHAR T
ENCODING 84
SWIDTH 623 0
DWIDTH 15 0
BBX 15 17 3 0
BITMAP
FFFE
FFFE
0300
0300
0300
0700
0700
0600
0600
0600
0E00
0E00
0C00
0C00
0C00
1C00
1C00
ENDCHAR
STARTCHAR U
ENCODING 85
SWIDTH 693 0
DWIDTH 17 0
BBX 15 17 3 0
BITMAP
3806
3806
300C
300C
700C
700C
701C
6018
6018
E018
E018
E038
E030
E070
F0E0
7FC0
3F80
ENDCHAR
STARTCHAR V
ENCODING 86
SWIDTH 687 0
DWIDTH 16 0
BBX 16 17 4 0
BITMAP
E007
E006
E00E
601C
6018
7038
7030
7070
30E0
30C0
39C0
3980
3B80
1F00
1E00
1E00
1C00
ENDCHAR
STARTCHAR W
ENCODING 87
SWIDTH 886 0
DWIDTH 21 0
BBX 20 17 4 0
BITMAP
C06030
C0E070
C0F060
C0F0E0
E1F0C0
E1F1C0
E37180
E37180
E67300
667300
6C7600
6C7600
787C00
783C00
783800
703800
703000
ENDCHAR
STARTCHAR X
ENCODING 88
SWIDTH 620 0
DWIDTH 15 0
BBX 17 17 0 0
BITMAP
0E0380
0E0700
070E00
071C00
031800
03B000
01E000
01E000
01C000
03E000
036000
067000
0C7000
1C3800
383800
701C00
E01C00
ENDCHAR
STARTCHAR Y
ENCODING 89
SWIDTH 608 0
DWIDTH 15 0
BBX 14 17 4 0
BITMAP
E01C
6038
7070
3060
38C0
39C0
1B80
1F00
0E00
0C00
0C00
0C00
1C00
1C00
1800
1800
3800
ENDCHAR
STARTCHAR Z
ENCODING 90
SWIDTH 578 0
DWIDTH 14 0
BBX 16 17 0 0
BITMAP
0FFF
0FFF
000E
001C
0038
0070
00E0
01C0
03C0
0780
0700
0E00
1C00
3800
7000
FFF8
FFF8
ENDCHAR
STARTCHAR bracketleft
ENCODING 91
SWIDTH 325 0
DWIDTH 8 0
BBX 9 21 1 -4
BITMAP
0F80
0F80
0C00
0C00
1C00
1800
1800
1800
1800
3000
3000
3000
3000
3000
6000
6000
6000
6000
4000
F800
F800
ENDCHAR
STARTCHAR backslash
ENCODING 92
SWIDTH 482 0
DWIDTH 12 0
BBX 7 21 4 -4
BITMAP
C0
C0
40
60
60
60
20
30
30
30
10
18
18
18
08
0C
0C
0C
04
06
06
ENDCHAR
STARTCHAR bracketright
ENCODING 93
SWIDTH 325 0
DWIDTH 8 0
BBX 9 21 0 -4
BITMAP
0F80
0F80
0100
0300
0300
0300
0300
0600
0600
0600
0600
0600
0C00
0C00
0C00
0C00
1C00
1800
1800
F800
F800
ENDCHAR
STARTCHAR asciicircum
ENCODING 94
SWIDTH 633 0
DWIDTH 15 0
BBX 14 14 1 3
BITMAP
0040
0040
00E0
01E0
03E0
0320
0630
0E30
0C10
1818
3818
3018
600C
E00C
ENDCHAR
STARTCHAR underscore
ENCODING 95
SWIDTH 500 0
DWIDTH 12 0
BBX 10 2 1 -3
BITMAP
FFC0
FFC0
ENDCHAR
STARTCHAR quoteleft
ENCODING 96
SWIDTH 217 0
DWIDTH 5 0
BBX 4 6 4 11
BITMAP
30
60
40
C0
E0
E0
ENDCHAR
STARTCHAR a
ENCODING 97
SWIDTH 608 0
DWIDTH 15 0
BBX 13 13 2 0
BITMAP
03F8
07F8
1E38
3830
3030
7070
60F0
E1F0
E1E0
E360
E760
FCE0
78E0
ENDCHAR
STARTCHAR b
ENCODING 98
SWIDTH 608 0
DWIDTH 15 0
BBX 13 17 2 0
BITMAP
0C00
1C00
1800
1800
18F0
19F8
3338
3638
3C38
3C38
7830
7070
6060
60E0
63C0
FF00
FE00
ENDCHAR
STARTCHAR c
ENCODING 99
SWIDTH 503 0
DWIDTH 12 0
BBX 11 13 2 0
BITMAP
07E0
0FE0
1C20
3000
7000
6000
E000
C000
C000
E000
E080
7F80
3E00
ENDCHAR
STARTCHAR d
ENCODING 100
SWIDTH 608 0
DWIDTH 15 0
BBX 14 17 2 0
BITMAP
000C
001C
0018
0018
03F8
0FF8
1C38
3830
3030
7070
60F0
E1F0
E1E0
E360
E7E0
FCE0
78C0
ENDCHAR
STARTCHAR e
ENCODING 101
SWIDTH 529 0
DWIDTH 13 0
BBX 10 13 2 0
BITMAP
0780
0FC0
38C0
30C0
60C0
6380
FF00
F800
C000
E040
E1C0
7FC0
3E00
ENDCHAR
STARTCHAR f
ENCODING 102
SWIDTH 383 0
DWIDTH 9 0
BBX 12 24 2 -5
BITMAP
01F0
03F0
0700
0E00
0C00
0C00
7F80
7F80
1800
1800
1800
3800
3800
3000
3000
3000
7000
7000
6000
6000
6000
E000
E000
C000
ENDCHAR
STARTCHAR g
ENCODING 103
SWIDTH 608 0
DWIDTH 15 0
BBX 14 18 1 -5
BITMAP
01FC
07FC
0E18
1C18
1818
3838
3038
7070
70F0
71B0
7330
7E70
3C60
0060
00E0
C0C0
FF80
7E00
ENDCHAR
STARTCHAR h
ENCODING 104
SWIDTH 620 0
DWIDTH 15 0
BBX 12 17 2 0
BITMAP
1C00
1C00
1800
1800
18E0
3BF0
3730
3E30
3C70
3870
7860
7060
6060
60E0
60E0
E0C0
C0C0
ENDCHAR
STARTCHAR i
ENCODING 105
SWIDTH 289 0
DWIDTH 7 0
BBX 6 17 2 0
BITMAP
1C
1C
00
00
18
38
30
30
30
30
70
60
60
60
60
E0
C0
ENDCHAR
STARTCHAR j
ENCODING 106
SWIDTH 325 0
DWIDTH 8 0
BBX 12 22 -2 -5
BITMAP
0030
0070
0000
0000
0060
00E0
00E0
00C0
00C0
00C0
01C0
01C0
0180
0180
0180
0380
0380
0300
0700
8E00
FC00
F800
ENDCHAR
STARTCHAR k
ENCODING 107
SWIDTH 572 0
DWIDTH 14 0
BBX 12 17 3 0
BITMAP
1C00
1C00
1800
1800
1870
38E0
31C0
3380
3700
3E00
6C00
6E00
6700
6300
6180
E1C0
C0E0
ENDCHAR
STARTCHAR l
ENCODING 108
SWIDTH 289 0
DWIDTH 7 0
BBX 6 17 2 0
BITMAP
0C
1C
18
18
18
38
38
30
30
30
70
70
60
60
60
E0
C0
ENDCHAR
STARTCHAR m
ENCODING 109
SWIDTH 934 0
DWIDTH 22 0
BBX 20 13 2 0
BITMAP
18F0E0
39F3F0
373770
363E70
3C7C70
3C7860
787860
707060
606060
6060E0
60E0C0
C0C0C0
C0C0C0
ENDCHAR
STARTCHAR n
ENCODING 110
SWIDTH 620 0
DWIDTH 15 0
BBX 12 13 2 0
BITMAP
38E0
33F0
3730
3E30
3C70
7C70
7860
7060
6060
60E0
E0E0
E0C0
C0C0
ENDCHAR
STARTCHAR o
ENCODING 111
SWIDTH 566 0
DWIDTH 14 0
BBX 12 13 2 0
BITMAP
07C0
1FE0
3870
3070
6070
6070
E070
C060
C0E0
E0C0
E380
7F00
3E00
ENDCHAR
STARTCHAR p
ENCODING 112
SWIDTH 608 0
DWIDTH 15 0
BBX 14 18 1 -5
BITMAP
1C78
1CFC
1B9C
1F1C
1E1C
3E1C
3C18
3838
3030
3070
71E0
7F80
7F00
6000
6000
E000
E000
C000
ENDCHAR
STARTCHAR q
ENCODING 113
SWIDTH 608 0
DWIDTH 15 0
BBX 13 18 2 -5
BITMAP
03F8
07F8
1E38
3830
3030
7070
60F0
E1F0
E1E0
E360
E760
FCE0
78E0
00C0
00C0
00C0
01C0
01C0
ENDCHAR
STARTCHAR r
ENCODING 114
SWIDTH 478 0
DWIDTH 11 0
BBX 11 13 2 0
BITMAP
38E0
39E0
3300
3600
3C00
7C00
7800
7000
6000
6000
E000
E000
C000
ENDCHAR
STARTCHAR s
ENCODING 115
SWIDTH 489 0
DWIDTH 12 0
BBX 10 13 2 0
BITMAP
0F80
1FC0
3840
3800
3800
1C00
0E00
0700
0300
0380
C380
FF00
7E00
ENDCHAR
STARTCHAR t
ENCODING 116
SWIDTH 383 0
DWIDTH 9 0
BBX 8 16 3 0
BITMAP
18
18
18
FF
FF
30
30
30
70
60
60
60
E0
60
7C
38
ENDCHAR
STARTCHAR u
ENCODING 117
SWIDTH 620 0
DWIDTH 15 0
BBX 12 13 3 0
BITMAP
3030
3070
3070
6060
6060
60E0
61E0
61E0
C3C0
C7C0
CEC0
FCC0
71C0
ENDCHAR
STARTCHAR v
ENCODING 118
SWIDTH 545 0
DWIDTH 13 0
BBX 12 13 3 0
BITMAP
C070
C060
C0C0
E0C0
6180
6380
6300
6600
6600
6C00
7C00
7800
3000
ENDCHAR
STARTCHAR w
ENCODING 119
SWIDTH 795 0
DWIDTH 19 0
BBX 18 13 3 0
BITMAP
C0C0C0
C1C180
C1C180
E3C300
E3C300
E6E600
666E00
6C6C00
6C7C00
787800
787800
707000
707000
ENDCHAR
STARTCHAR x
ENCODING 120
SWIDTH 541 0
DWIDTH 13 0
BBX 14 13 1 0
BITMAP
1C1C
0C38
0E70
0660
07C0
0380
0380
0780
0DC0
18C0
38E0
7060
E070
ENDCHAR
STARTCHAR y
ENCODING 121
SWIDTH 548 0
DWIDTH 13 0
BBX 13 18 2 -5
BITMAP
6038
6030
7070
7060
30C0
31C0
3180
3380
3B00
3E00
3E00
1C00
1C00
1800
3000
3000
6000
E000
ENDCHAR
STARTCHAR z
ENCODING 122
SWIDTH 536 0
DWIDTH 13 0
BBX 12 13 2 0
BITMAP
1FF0
3FF0
00E0
01C0
0380
0700
0700
0E00
1C00
3800
7000
FFE0
FFC0
ENDCHAR
STARTCHAR braceleft
ENCODING 123
SWIDTH 325 0
DWIDTH 8 0
BBX 8 21 2 -4
BITMAP
07
0F
0C
1C
1C
1C
18
18
38
F0
E0
20
30
30
70
60
60
C0
C0
70
30
ENDCHAR
STARTCHAR bar
ENCODING 124
SWIDTH 233 0
DWIDTH 6 0
BBX 6 21 1 -4
BITMAP
0C
0C
08
08
18
18
18
10
10
30
30
30
20
20
60
60
60
40
40
C0
C0
ENDCHAR
STARTCHAR braceright
ENCODING 125
SWIDTH 325 0
DWIDTH 8 0
BBX 8 21 1 -4
BITMAP
0C
0F
03
03
07
06
06
0C
0E
07
03
0C
18
18
18
18
18
38
38
F0
E0
ENDCHAR
STARTCHAR asciitilde
ENCODING 126
SWIDTH 633 0
DWIDTH 15 0
BBX 15 6 1 4
BITMAP
1C06
3E06
6704
41CC
C0F8
C070
ENDCHAR
STARTCHAR Aogonek
ENCODING 161
SWIDTH 687 0
DWIDTH 16 0
BBX 16 20 0 -3
BITMAP
0038
0078
0078
00D8
01DC
019C
039C
030C
060C
060E
0C0E
1FFE
1FFE
3006
3007
6007
E007
000C
0018
001E
ENDCHAR
STARTCHAR breve
ENCODING 162
SWIDTH 506 0
DWIDTH 12 0
BBX 8 3 2 14
BITMAP
C3
C6
7C
ENDCHAR
STARTCHAR Lslash
ENCODING 163
SWIDTH 545 0
DWIDTH 13 0
BBX 12 17 1 0
BITMAP
0600
0E00
0E00
0C00
0C80
0F00
1F00
1C00
7800
F800
9800
3800
3800
3000
3000
3FF0
7FF0
ENDCHAR
STARTCHAR currency
ENCODING 164
SWIDTH 633 0
DWIDTH 15 0
BBX 17 15 1 1
BITMAP
100100
380380
1DEE00
0FFC00
0E1800
0C0800
180800
180800
181800
181800
0C7000
1FF800
33D800
E00C00
400800
ENDCHAR
STARTCHAR Lcaron
ENCODING 165
SWIDTH 545 0
DWIDTH 13 0
BBX 11 17 2 0
BITMAP
1CC0
1CC0
1840
1880
1880
3900
3800
3000
3000
3000
7000
7000
6000
6000
6000
FFE0
FFE0
ENDCHAR
STARTCHAR Sacute
ENCODING 166
SWIDTH 553 0
DWIDTH 13 0
BBX 14 21 2 0
BITMAP
001C
0030
00E0
0000
03F0
0FF8
1E08
1C00
1800
1C00
1E00
0F00
0780
01C0
00E0
0060
0060
00E0
C1E0
FFC0
7F00
ENDCHAR
STARTCHAR section
ENCODING 167
SWIDTH 633 0
DWIDTH 15 0
BBX 13 22 2 -5
BITMAP
03F8
0FF8
1C18
1800
1800
1800
0E00
0F80
1BC0
30E0
3070
3070
3860
1FE0
0FC0
01C0
00E0
00E0
00C0
C1C0
FF80
7F00
ENDCHAR
STARTCHAR dieresis
ENCODING 168
SWIDTH 566 0
DWIDTH 14 0
BBX 7 2 7 15
BITMAP
C6
C6
ENDCHAR
STARTCHAR Scaron
ENCODING 169
SWIDTH 553 0
DWIDTH 13 0
BBX 13 21 2 0
BITMAP
0638
0360
03C0
0000
03F0
0FF8
1E08
1C00
1800
1C00
1E00
0F00
0780
01C0
00E0
0060
0060
00E0
C1E0
FFC0
7F00
ENDCHAR
STARTCHAR Scedilla
ENCODING 170
SWIDTH 553 0
DWIDTH 13 0
BBX 13 22 2 -5
BITMAP
03F0
0FF8
1E08
1C00
1800
1C00
1E00
0F00
0780
01C0
00E0
0060
0060
00E0
C1E0
FFC0
7F00
0C00
0600
0600
0600
1C00
ENDCHAR
STARTCHAR Tcaron
ENCODING 171
SWIDTH 623 0
DWIDTH 15 0
BBX 15 21 3 0
BITMAP
0638
0360
03C0
0000
FFFE
FFFE
0300
0300
0300
0700
0700
0600
0600
0600
0E00
0E00
0C00
0C00
0C00
1C00
1C00
ENDCHAR
STARTCHAR Zacute
ENCODING 172
SWIDTH 578 0
DWIDTH 14 0
BBX 16 21 0 0
BITMAP
000E
0018
0070
0000
0FFF
0FFF
000E
001C
0038
0070
00E0
01C0
03C0
0780
0700
0E00
1C00
3800
7000
FFF8
FFF8
ENDCHAR
STARTCHAR hyphen
ENCODING 173
SWIDTH 313 0
DWIDTH 8 0
BBX 6 2 2 7
BITMAP
FC
FC
ENDCHAR
STARTCHAR Zcaron
ENCODING 174
SWIDTH 578 0
DWIDTH 14 0
BBX 16 21 0 0
BITMAP
018E
00D8
00F0
0000
0FFF
0FFF
000E
001C
0038
0070
00E0
01C0
03C0
0780
0700
0E00
1C00
3800
7000
FFF8
FFF8
ENDCHAR
STARTCHAR Zdotaccent
ENCODING 175
SWIDTH 578 0
DWIDTH 14 0
BBX 16 21 0 0
BITMAP
0070
0070
0000
0000
0FFF
0FFF
000E
001C
0038
0070
00E0
01C0
03C0
0780
0700
0E00
1C00
3800
7000
FFF8
FFF8
ENDCHAR
STARTCHAR degree
ENCODING 176
SWIDTH 269 0
DWIDTH 6 0
BBX 4 4 4 13
BITMAP
60
90
90
60
ENDCHAR
STARTCHAR aogonek
ENCODING 177
SWIDTH 608 0
DWIDTH 15 0
BBX 13 16 2 -3
BITMAP
03F8
07F8
1E38
3830
3030
7070
60F0
E1F0
E1E0
E360
E760
FCE0
78E0
0060
00C0
00F0
ENDCHAR
STARTCHAR ogonek
ENCODING 178
SWIDTH 421 0
DWIDTH 10 0
BBX 4 3 3 -4
BITMAP
60
C0
F0
ENDCHAR
STARTCHAR lslash
ENCODING 179
SWIDTH 289 0
DWIDTH 7 0
BBX 9 17 1 0
BITMAP
0600
0600
0600
0E00
0C80
0F80
0F00
1C00
7800
D800
9800
3800
3800
3000
3000
3000
7000
ENDCHAR
STARTCHAR acute
ENCODING 180
SWIDTH 566 0
DWIDTH 14 0
BBX 6 3 8 14
BITMAP
1C
30
E0
ENDCHAR
STARTCHAR lcaron
ENCODING 181
SWIDTH 371 0
DWIDTH 9 0
BBX 10 17 2 0
BITMAP
0CC0
1CC0
1840
1880
1880
3900
3800
3000
3000
3000
7000
7000
6000
6000
6000
E000
C000
ENDCHAR
STARTCHAR sacute
ENCODING 182
SWIDTH 489 0
DWIDTH 12 0
BBX 12 17 2 0
BITMAP
0070
00C0
0380
0000
0F80
1FC0
3840
3800
3800
1C00
0E00
0700
0300
0380
C380
FF00
7E00
ENDCHAR
STARTCHAR caron
ENCODING 183
SWIDTH 506 0
DWIDTH 12 0
BBX 8 3 2 14
BITMAP
C7
6C
78
ENDCHAR
STARTCHAR cedilla
ENCODING 184
SWIDTH 421 0
DWIDTH 10 0
BBX 4 6 4 -5
BITMAP
20
60
30
30
30
E0
ENDCHAR
STARTCHAR scaron
ENCODING 185
SWIDTH 489 0
DWIDTH 12 0
BBX 12 17 2 0
BITMAP
0C70
06C0
0780
0000
0F80
1FC0
3840
3800
3800
1C00
0E00
0700
0300
0380
C380
FF00
7E00
ENDCHAR
STARTCHAR scedilla
ENCODING 186
SWIDTH 489 0
DWIDTH 12 0
BBX 10 18 2 -5
BITMAP
0F80
1FC0
3840
3800
3800
1C00
0E00
0700
0300
0380
C380
FF00
7E00
1800
0C00
0C00
0C00
3800
ENDCHAR
STARTCHAR tcaron
ENCODING 187
SWIDTH 340 0
DWIDTH 8 0
BBX 9 20 3 0
BITMAP
0180
0180
0080
0100
1900
1A00
1800
FF00
FF00
3000
3000
3000
7000
6000
6000
6000
E000
6000
7C00
3800
ENDCHAR
STARTCHAR zacute
ENCODING 188
SWIDTH 536 0
DWIDTH 13 0
BBX 12 17 2 0
BITMAP
0070
00C0
0380
0000
1FF0
3FF0
00E0
01C0
0380
0700
0700
0E00
1C00
3800
7000
FFE0
FFC0
ENDCHAR
STARTCHAR hungarumlaut
ENCODING 189
SWIDTH 506 0
DWIDTH 12 0
BBX 8 3 2 14
BITMAP
1B
2C
D8
ENDCHAR
STARTCHAR zcaron
ENCODING 190
SWIDTH 536 0
DWIDTH 13 0
BBX 13 17 2 0
BITMAP
0638
0360
03C0
0000
1FF0
3FF0
00E0
01C0
0380
0700
0700
0E00
1C00
3800
7000
FFE0
FFC0
ENDCHAR
STARTCHAR zdotaccent
ENCODING 191
SWIDTH 536 0
DWIDTH 13 0
BBX 12 17 2 0
BITMAP
01C0
01C0
0000
0000
1FF0
3FF0
00E0
01C0
0380
0700
0700
0E00
1C00
3800
7000
FFE0
FFC0
ENDCHAR
STARTCHAR Racute
ENCODING 192
SWIDTH 632 0
DWIDTH 15 0
BBX 13 21 2 0
BITMAP
0070
00C0
0380
0000
1FF0
1FF8
1838
1838
3838
3830
3870
30E0
3F80
7F80
7180
71C0
60C0
60E0
E060
E070
E030
ENDCHAR
STARTCHAR Aacute
ENCODING 193
SWIDTH 687 0
DWIDTH 16 0
BBX 16 21 0 0
BITMAP
000E
0018
0070
0000
0038
0078
0078
00D8
01DC
019C
039C
030C
060C
060E
0C0E
1FFE
1FFE
3006
3007
6007
E007
ENDCHAR
STARTCHAR Acircumflex
ENCODING 194
SWIDTH 687 0
DWIDTH 16 0
BBX 16 21 0 0
BITMAP
003C
006C
01C6
0000
0038
0078
0078
00D8
01DC
019C
039C
030C
060C
060E
0C0E
1FFE
1FFE
3006
3007
6007
E007
ENDCHAR
STARTCHAR Abreve
ENCODING 195
SWIDTH 687 0
DWIDTH 16 0
BBX 16 21 0 0
BITMAP
00C3
00C6
007C
0000
0038
0078
0078
00D8
01DC
019C
039C
030C
060C
060E
0C0E
1FFE
1FFE
3006
3007
6007
E007
ENDCHAR
STARTCHAR Adieresis
ENCODING 196
SWIDTH 687 0
DWIDTH 16 0
BBX 16 20 0 0
BITMAP
00C6
00C6
0000
0038
0078
0078
00D8
01DC
019C
039C
030C
060C
060E
0C0E
1FFE
1FFE
3006
3007
6007
E007
ENDCHAR
STARTCHAR Lacute
ENCODING 197
SWIDTH 545 0
DWIDTH 13 0
BBX 11 21 2 0
BITMAP
01C0
0300
0E00
0000
1C00
1C00
1800
1800
1800
3800
3800
3000
3000
3000
7000
7000
6000
6000
6000
FFE0
FFE0
ENDCHAR
STARTCHAR Cacute
ENCODING 198
SWIDTH 679 0
DWIDTH 16 0
BBX 16 21 3 0
BITMAP
0007
000C
0038
0000
01FE
07FF
0F03
1C00
3800
7000
7000
6000
E000
E000
E000
E000
E000
E000
7818
3FF8
0FE0
ENDCHAR
STARTCHAR Ccedilla
ENCODING 199
SWIDTH 679 0
DWIDTH 16 0
BBX 16 22 3 -5
BITMAP
01FE
07FF
0F03
1C00
3800
7000
7000
6000
E000
E000
E000
E000
E000
E000
7818
3FF8
0FE0
0C00
0600
0600
0600
1C00
ENDCHAR
STARTCHAR Ccaron
ENCODING 200
SWIDTH 679 0
DWIDTH 16 0
BBX 16 21 3 0
BITMAP
00C7
006C
0078
0000
01FE
07FF
0F03
1C00
3800
7000
7000
6000
E000
E000
E000
E000
E000
E000
7818
3FF8
0FE0
ENDCHAR
STARTCHAR Eacute
ENCODING 201
SWIDTH 547 0
DWIDTH 13 0
BBX 13 21 2 0
BITMAP
0070
00C0
0380
0000
1FF8
1FF8
1800
1800
3800
3800
3000
3FC0
3FC0
7000
7000
7000
6000
6000
E000
FFC0
FFC0
ENDCHAR
STARTCHAR Eogonek
ENCODING 202
SWIDTH 547 0
DWIDTH 13 0
BBX 13 20 2 -3
BITMAP
1FF8
1FF8
1800
1800
3800
3800
3000
3FC0
3FC0
7000
7000
7000
6000
6000
E000
FFC0
FFC0
00C0
0180
01E0
ENDCHAR
STARTCHAR Edieresis
ENCODING 203
SWIDTH 547 0
DWIDTH 13 0
BBX 13 20 2 0
BITMAP
0C60
0C60
0000
1FF8
1FF8
1800
1800
3800
3800
3000
3FC0
3FC0
7000
7000
7000
6000
6000
E000
FFC0
FFC0
ENDCHAR
STARTCHAR Ecaron
ENCODING 204
SWIDTH 547 0
DWIDTH 13 0
BBX 13 21 2 0
BITMAP
0638
0360
03C0
0000
1FF8
1FF8
1800
1800
3800
3800
3000
3FC0
3FC0
7000
7000
7000
6000
6000
E000
FFC0
FFC0
ENDCHAR
STARTCHAR Iacute
ENCODING 205
SWIDTH 289 0
DWIDTH 7 0
BBX 9 21 2 0
BITMAP
0380
0600
1C00
0000
1C00
1C00
1800
1800
1800
3800
3800
3000
3000
3000
7000
7000
6000
6000
6000
E000
E000
ENDCHAR
STARTCHAR Icircumflex
ENCODING 206
SWIDTH 289 0
DWIDTH 7 0
BBX 9 21 2 0
BITMAP
0F00
1B00
7180
0000
1C00
1C00
1800
1800
1800
3800
3800
3000
3000
3000
7000
7000
6000
6000
6000
E000
E000
ENDCHAR
STARTCHAR Dcaron
ENCODING 207
SWIDTH 743 0
DWIDTH 18 0
BBX 17 21 2 0
BITMAP
018E00
00D800
00F000
000000
1FFC00
1FFE00
1C0F00
180780
180380
380380
380380
300380
300380
300300
700700
700600
600E00
601C00
607800
FFF000
FFC000
ENDCHAR
STARTCHAR Eth
ENCODING 208
SWIDTH 743 0
DWIDTH 18 0
BBX 18 17 1 0
BITMAP
0FFE00
0FFF00
0E0780
0C03C0
0C01C0
1C01C0
1C01C0
FFC1C0
FF81C0
180180
380380
380300
300700
300E00
303C00
7FF800
7FE000
ENDCHAR
STARTCHAR Nacute
ENCODING 209
SWIDTH 741 0
DWIDTH 18 0
BBX 17 21 2 0
BITMAP
000E00
001800
007000
000000
1C0180
1E0180
1E0300
1F0300
1F0300
3B0300
338300
318600
31C600
30C600
60E600
606E00
607C00
607C00
603C00
C03C00
C01C00
ENDCHAR
STARTCHAR Ncaron
ENCODING 210
SWIDTH 741 0
DWIDTH 18 0
BBX 17 21 2 0
BITMAP
00C700
006C00
007800
000000
1C0180
1E0180
1E0300
1F0300
1F0300
3B0300
338300
318600
31C600
30C600
60E600
606E00
607C00
607C00
603C00
C03C00
C01C00
ENDCHAR
STARTCHAR Oacute
ENCODING 211
SWIDTH 777 0
DWIDTH 19 0
BBX 17 21 3 0
BITMAP
001C00
003000
00E000
000000
01F800
07FE00
0F0F00
1C0700
380380
700380
700380
600380
E00380
E00300
E00700
E00600
E00E00
F01C00
787800
3FF000
0F8000
ENDCHAR
STARTCHAR Ocircumflex
ENCODING 212
SWIDTH 777 0
DWIDTH 19 0
BBX 17 21 3 0
BITMAP
007800
00D800
038C00
000000
01F800
07FE00
0F0F00
1C0700
380380
700380
700380
600380
E00380
E00300
E00700
E00600
E00E00
F01C00
787800
3FF000
0F8000
ENDCHAR
STARTCHAR Ohungarumlaut
ENCODING 213
SWIDTH 777 0
DWIDTH 19 0
BBX 17 21 3 0
BITMAP
001B00
002C00
00D800
000000
01F800
07FE00
0F0F00
1C0700
380380
700380
700380
600380
E00380
E00300
E00700
E00600
E00E00
F01C00
787800
3FF000
0F8000
ENDCHAR
STARTCHAR Odieresis
ENCODING 214
SWIDTH 777 0
DWIDTH 19 0
BBX 17 20 3 0
BITMAP
018C00
018C00
000000
01F800
07FE00
0F0F00
1C0700
380380
700380
700380
600380
E00380
E00300
E00700
E00600
E00E00
F01C00
787800
3FF000
0F8000
ENDCHAR
STARTCHAR multiply
ENCODING 215
SWIDTH 633 0
DWIDTH 15 0
BBX 16 14 1 0
BITMAP
3002
1807
1C0E
0C18
0630
03E0
01C0
03C0
07C0
0C60
1830
7038
E01C
4008
ENDCHAR
STARTCHAR Rcaron
ENCODING 216
SWIDTH 632 0
DWIDTH 15 0
BBX 14 21 2 0
BITMAP
031C
01B0
01E0
0000
1FF0
1FF8
1838
1838
3838
3830
3870
30E0
3F80
7F80
7180
71C0
60C0
60E0
E060
E070
E030
ENDCHAR
STARTCHAR Uring
ENCODING 217
SWIDTH 693 0
DWIDTH 17 0
BBX 15 22 3 0
BITMAP
00C0
0120
0120
00C0
0000
3806
3806
300C
300C
700C
700C
701C
6018
6018
E018
E018
E038
E030
E070
F0E0
7FC0
3F80
ENDCHAR
STARTCHAR Uacute
ENCODING 218
SWIDTH 693 0
DWIDTH 17 0
BBX 15 21 3 0
BITMAP
0038
0060
01C0
0000
3806
3806
300C
300C
700C
700C
701C
6018
6018
E018
E018
E038
E030
E070
F0E0
7FC0
3F80
ENDCHAR
STARTCHAR Uhungarumlaut
ENCODING 219
SWIDTH 693 0
DWIDTH 17 0
BBX 15 21 3 0
BITMAP
006C
00B0
0360
0000
3806
3806
300C
300C
700C
700C
701C
6018
6018
E018
E018
E038
E030
E070
F0E0
7FC0
3F80
ENDCHAR
STARTCHAR Udieresis
ENCODING 220
SWIDTH 693 0
DWIDTH 17 0
BBX 15 20 3 0
BITMAP
0630
0630
0000
3806
3806
300C
300C
700C
700C
701C
6018
6018
E018
E018
E038
E030
E070
F0E0
7FC0
3F80
ENDCHAR
STARTCHAR Yacute
ENCODING 221
SWIDTH 608 0
DWIDTH 15 0
BBX 14 21 4 0
BITMAP
00E0
0180
0700
0000
E01C
6038
7070
3060
38C0
39C0
1B80
1F00
0E00
0C00
0C00
0C00
1C00
1C00
1800
1800
3800
ENDCHAR
STARTCHAR Tcedilla
ENCODING 222
SWIDTH 623 0
DWIDTH 15 0
BBX 15 22 3 -5
BITMAP
FFFE
FFFE
0300
0300
0300
0700
0700
0600
0600
0600
0E00
0E00
0C00
0C00
0C00
1C00
1C00
0C00
0600
0600
0600
1C00
ENDCHAR
STARTCHAR germandbls
ENCODING 223
SWIDTH 595 0
DWIDTH 14 0
BBX 13 24 1 -5
BITMAP
03E0
07F0
0630
0E30
0C30
0C60
1CC0
1D80
1B80
1B80
19C0
38E0
3870
3038
3018
3018
7238
73F0
63E0
6000
6000
E000
E000
C000
ENDCHAR
STARTCHAR racute
ENCODING 224
SWIDTH 478 0
DWIDTH 11 0
BBX 12 17 2 0
BITMAP
0070
00C0
0380
0000
38E0
39E0
3300
3600
3C00
7C00
7800
7000
6000
6000
E000
E000
C000
ENDCHAR
STARTCHAR aacute
ENCODING 225
SWIDTH 608 0
DWIDTH 15 0
BBX 13 17 2 0
BITMAP
0038
0060
01C0
0000
03F8
07F8
1E38
3830
3030
7070
60F0
E1F0
E1E0
E360
E760
FCE0
78E0
ENDCHAR
STARTCHAR acircumflex
ENCODING 226
SWIDTH 608 0
DWIDTH 15 0
BBX 13 17 2 0
BITMAP
00F0
01B0
0718
0000
03F8
07F8
1E38
3830
3030
7070
60F0
E1F0
E1E0
E360
E760
FCE0
78E0
ENDCHAR
STARTCHAR abreve
ENCODING 227
SWIDTH 608 0
DWIDTH 15 0
BBX 14 17 2 0
BITMAP
030C
0318
01F0
0000
03F8
07F8
1E38
3830
3030
7070
60F0
E1F0
E1E0
E360
E760
FCE0
78E0
ENDCHAR
STARTCHAR adieresis
ENCODING 228
SWIDTH 608 0
DWIDTH 15 0
BBX 13 16 2 0
BITMAP
0630
0630
0000
03F8
07F8
1E38
3830
3030
7070
60F0
E1F0
E1E0
E360
E760
FCE0
78E0
ENDCHAR
STARTCHAR lacute
ENCODING 229
SWIDTH 289 0
DWIDTH 7 0
BBX 11 21 2 0
BITMAP
00E0
0180
0700
0000
0C00
1C00
1800
1800
1800
3800
3800
3000
3000
3000
7000
7000
6000
6000
6000
E000
C000
ENDCHAR
STARTCHAR cacute
ENCODING 230
SWIDTH 503 0
DWIDTH 12 0
BBX 13 17 2 0
BITMAP
0038
0060
01C0
0000
07E0
0FE0
1C20
3000
7000
6000
E000
C000
C000
E000
E080
7F80
3E00
ENDCHAR
STARTCHAR ccedilla
ENCODING 231
SWIDTH 503 0
DWIDTH 12 0
BBX 11 18 2 -5
BITMAP
07E0
0FE0
1C20
3000
7000
6000
E000
C000
C000
E000
E080
7F80
3E00
1800
0C00
0C00
0C00
3800
ENDCHAR
STARTCHAR ccaron
ENCODING 232
SWIDTH 503 0
DWIDTH 12 0
BBX 13 17 2 0
BITMAP
0638
0360
03C0
0000
07E0
0FE0
1C20
3000
7000
6000
E000
C000
C000
E000
E080
7F80
3E00
ENDCHAR
STARTCHAR eacute
ENCODING 233
SWIDTH 529 0
DWIDTH 13 0
BBX 12 17 2 0
BITMAP
0070
00C0
0380
0000
0780
0FC0
38C0
30C0
60C0
6380
FF00
F800
C000
E040
E1C0
7FC0
3E00
ENDCHAR
STARTCHAR eogonek
ENCODING 234
SWIDTH 529 0
DWIDTH 13 0
BBX 10 16 2 -3
BITMAP
0780
0FC0
38C0
30C0
60C0
6380
FF00
F800
C000
E040
E1C0
7FC0
3E00
1800
3000
3C00
ENDCHAR
STARTCHAR edieresis
ENCODING 235
SWIDTH 529 0
DWIDTH 13 0
BBX 11 16 2 0
BITMAP
0C60
0C60
0000
0780
0FC0
38C0
30C0
60C0
6380
FF00
F800
C000
E040
E1C0
7FC0
3E00
ENDCHAR
STARTCHAR ecaron
ENCODING 236
SWIDTH 529 0
DWIDTH 13 0
BBX 13 17 2 0
BITMAP
0638
0360
03C0
0000
0780
0FC0
38C0
30C0
60C0
6380
FF00
F800
C000
E040
E1C0
7FC0
3E00
ENDCHAR
STARTCHAR iacute
ENCODING 237
SWIDTH 289 0
DWIDTH 7 0
BBX 9 17 2 0
BITMAP
0380
0600
1C00
0000
1800
3800
3000
3000
3000
3000
7000
6000
6000
6000
6000
E000
C000
ENDCHAR
STARTCHAR icircumflex
ENCODING 238
SWIDTH 289 0
DWIDTH 7 0
BBX 9 17 2 0
BITMAP
0F00
1B00
7180
0000
1800
3800
3000
3000
3000
3000
7000
6000
6000
6000
6000
E000
C000
ENDCHAR
STARTCHAR dcaron
ENCODING 239
SWIDTH 689 0
DWIDTH 17 0
BBX 18 17 2 0
BITMAP
000CC0
001CC0
001840
001880
03F880
0FF900
1C3800
383000
303000
707000
60F000
E1F000
E1E000
E36000
E7E000
FCE000
78C000
ENDCHAR
STARTCHAR dmacron
ENCODING 240
SWIDTH 608 0
DWIDTH 15 0
BBX 15 17 2 0
BITMAP
000C
001C
03FE
0018
03F8
0FF8
1C38
3830
3030
7070
60F0
E1F0
E1E0
E360
E7E0
FCE0
78C0
ENDCHAR
STARTCHAR nacute
ENCODING 241
SWIDTH 620 0
DWIDTH 15 0
BBX 12 17 2 0
BITMAP
0070
00C0
0380
0000
38E0
33F0
3730
3E30
3C70
7C70
7860
7060
6060
60E0
E0E0
E0C0
C0C0
ENDCHAR
STARTCHAR ncaron
ENCODING 242
SWIDTH 620 0
DWIDTH 15 0
BBX 13 17 2 0
BITMAP
0638
0360
03C0
0000
38E0
33F0
3730
3E30
3C70
7C70
7860
7060
6060
60E0
E0E0
E0C0
C0C0
ENDCHAR
STARTCHAR oacute
ENCODING 243
SWIDTH 566 0
DWIDTH 14 0
BBX 12 17 2 0
BITMAP
0070
00C0
0380
0000
07C0
1FE0
3870
3070
6070
6070
E070
C060
C0E0
E0C0
E380
7F00
3E00
ENDCHAR
STARTCHAR ocircumflex
ENCODING 244
SWIDTH 566 0
DWIDTH 14 0
BBX 12 17 2 0
BITMAP
01E0
0360
0E30
0000
07C0
1FE0
3870
3070
6070
6070
E070
C060
C0E0
E0C0
E380
7F00
3E00
ENDCHAR
STARTCHAR ohungarumlaut
ENCODING 245
SWIDTH 566 0
DWIDTH 14 0
BBX 13 17 2 0
BITMAP
00D8
0160
06C0
0000
07C0
1FE0
3870
3070
6070
6070
E070
C060
C0E0
E0C0
E380
7F00
3E00
ENDCHAR
STARTCHAR odieresis
ENCODING 246
SWIDTH 566 0
DWIDTH 14 0
BBX 12 16 2 0
BITMAP
0630
0630
0000
07C0
1FE0
3870
3070
6070
6070
E070
C060
C0E0
E0C0
E380
7F00
3E00
ENDCHAR
STARTCHAR divide
ENCODING 247
SWIDTH 633 0
DWIDTH 15 0
BBX 14 13 2 0
BITMAP
0180
0380
0000
0000
0000
FFFC
FFFC
0000
0000
0000
0000
0700
0600
ENDCHAR
STARTCHAR rcaron
ENCODING 248
SWIDTH 478 0
DWIDTH 11 0
BBX 13 17 2 0
BITMAP
0638
0360
03C0
0000
38E0
39E0
3300
3600
3C00
7C00
7800
7000
6000
6000
E000
E000
C000
ENDCHAR
STARTCHAR uring
ENCODING 249
SWIDTH 620 0
DWIDTH 15 0
BBX 12 18 3 0
BITMAP
0180
0240
0240
0180
0000
3030
3070
3070
6060
6060
60E0
61E0
61E0
C3C0
C7C0
CEC0
FCC0
71C0
ENDCHAR
STARTCHAR uacute
ENCODING 250
SWIDTH 620 0
DWIDTH 15 0
BBX 12 17 3 0
BITMAP
0070
00C0
0380
0000
3030
3070
3070
6060
6060
60E0
61E0
61E0
C3C0
C7C0
CEC0
FCC0
71C0
ENDCHAR
STARTCHAR uhungarumlaut
ENCODING 251
SWIDTH 620 0
DWIDTH 15 0
BBX 12 17 3 0
BITMAP
01B0
02C0
0D80
0000
3030
3070
3070
6060
6060
60E0
61E0
61E0
C3C0
C7C0
CEC0
FCC0
71C0
ENDCHAR
STARTCHAR udieresis
ENCODING 252
SWIDTH 620 0
DWIDTH 15 0
BBX 12 16 3 0
BITMAP
0630
0630
0000
3030
3070
3070
6060
6060
60E0
61E0
61E0
C3C0
C7C0
CEC0
FCC0
71C0
ENDCHAR
STARTCHAR yacute
ENCODING 253
SWIDTH 548 0
DWIDTH 13 0
BBX 13 22 2 -5
BITMAP
0070
00C0
0380
0000
6038
6030
7070
7060
30C0
31C0
3180
3380
3B00
3E00
3E00
1C00
1C00
1800
3000
3000
6000
E000
ENDCHAR
STARTCHAR tcedilla
ENCODING 254
SWIDTH 383 0
DWIDTH 9 0
BBX 8 21 3 -5
BITMAP
18
18
18
FF
FF
30
30
30
70
60
60
60
E0
60
7C
38
18
0C
0C
0C
38
ENDCHAR
STARTCHAR dotaccent
ENCODING 255
SWIDTH 379 0
DWIDTH 9 0
BBX 3 2 3 15
BITMAP
E0
E0
ENDCHAR
ENDFONT
